<?xml version="1.0" standalone="no"?>
<!-- Creator: fig2dev Version 3.2.7a -->
<!-- CreationDate: 2020-05-21 13:30:21 -->
<!-- Magnification: 1.05 -->
<svg	xmlns="http://www.w3.org/2000/svg"
	xmlns:xlink="http://www.w3.org/1999/xlink"
	width="723pt" height="638pt"
	viewBox="343 343 11464 10114">
<g fill="none">
<!-- Line -->
<rect x="5400" y="450" width="6300" height="9900"
	stroke="#000000" stroke-width="135px"/>
<!-- Line -->
<polyline points=" 450,4050 2250,4050 2250,2700 4950,5400 2250,8100 2250,6750 450,6750 450,4050
" fill="#0000ff"
	stroke="#000000" stroke-width="135px"/>
<!-- Line -->
<polyline points=" 5850,900 9450,900"
	stroke="#0000ff" stroke-width="285px"/>
<!-- Line -->
<polyline points=" 5850,1800 9450,1800"
	stroke="#00ffff" stroke-width="285px"/>
<!-- Line -->
<polyline points=" 5850,2700 9450,2700"
	stroke="#ff0000" stroke-width="285px"/>
<!-- Line -->
<polyline points=" 5850,3600 9450,3600"
	stroke="#ff00ff" stroke-width="285px"/>
<!-- Line -->
<polyline points=" 5850,4500 9450,4500"
	stroke="#008f00" stroke-width="285px"/>
<!-- Line -->
<polyline points=" 5850,5400 9450,5400"
	stroke="#803000" stroke-width="285px"/>
<!-- Line -->
<polyline points=" 5850,6300 9450,6300"
	stroke="#00d1d1" stroke-width="285px"/>
<!-- Line -->
<polyline points=" 5850,7200 9450,7200"
	stroke="#ffff00" stroke-width="285px"/>
<!-- Line -->
<polyline points=" 5850,8100 9450,8100"
	stroke="#ffbfbf" stroke-width="285px"/>
<!-- Line -->
<polyline points=" 5850,9000 9450,9000"
	stroke="#00008f" stroke-width="285px"/>
<!-- Line -->
<polyline points=" 5850,9900 9450,9900"
	stroke="#8f008f" stroke-width="285px"/>
<!-- Line -->
<polyline points=" 9900,900 11250,900"
	stroke="#000000" stroke-width="285px"/>
<!-- Line -->
<polyline points=" 9900,1800 11250,1800"
	stroke="#000000" stroke-width="285px"/>
<!-- Line -->
<polyline points=" 9900,2700 11250,2700"
	stroke="#000000" stroke-width="285px"/>
<!-- Line -->
<polyline points=" 9900,3600 11250,3600"
	stroke="#000000" stroke-width="285px"/>
<!-- Line -->
<polyline points=" 9900,4500 11250,4500"
	stroke="#000000" stroke-width="285px"/>
<!-- Line -->
<polyline points=" 9900,5400 11250,5400"
	stroke="#000000" stroke-width="285px"/>
<!-- Line -->
<polyline points=" 9900,6300 11250,6300"
	stroke="#000000" stroke-width="285px"/>
<!-- Line -->
<polyline points=" 9900,7200 11250,7200"
	stroke="#000000" stroke-width="285px"/>
<!-- Line -->
<polyline points=" 9900,8100 11250,8100"
	stroke="#000000" stroke-width="285px"/>
<!-- Line -->
<polyline points=" 9900,9000 11250,9000"
	stroke="#000000" stroke-width="285px"/>
<!-- Line -->
<polyline points=" 9900,9900 11250,9900"
	stroke="#000000" stroke-width="285px"/>
</g>
</svg>
