<?xml version="1.0" standalone="no"?>
<!-- Creator: fig2dev Version 3.2.6a -->
<!-- CreationDate: 2020-07-05 14:37:30 -->
<!-- Magnification: 1.05 -->
<svg	xmlns="http://www.w3.org/2000/svg"
	xmlns:xlink="http://www.w3.org/1999/xlink"
	width="751pt" height="751pt"
	viewBox="-107 -107 11914 11914">
<g fill="none">
<!-- Arc -->
<path d="M 720,3420 A 4901 4901 0 0 0 7920 3420"
	stroke="#000000" stroke-width="435px"/>
<!-- Arc -->
<path d="M 3892,7290 A 519 519 0 0 0 4747 7290"
	stroke="#000000" stroke-width="435px"/>
<!-- Arc -->
<path d="M 3915,9680 A 428 428 0 1 0 4770 9680"
	stroke="#000000" stroke-width="435px"/>
<!-- Arc -->
<path d="M 720,3690 A 4901 4901 0 0 1 7920 3690"
	stroke="#000000" stroke-width="435px"/>
<!-- Line -->
<rect x="8775" y="720" width="2250" height="10350"
	stroke="#ff0000" stroke-width="285px"/>
<!-- Line -->
<polyline points=" 9225,4950 10575,4950"
	stroke="#000000" stroke-width="585px"/>
<!-- Line -->
<polyline points=" 9225,6750 10575,6750"
	stroke="#000000" stroke-width="585px"/>
<!-- Line -->
<polyline points=" 9225,8550 10575,8550"
	stroke="#000000" stroke-width="585px"/>
<!-- Line -->
<polyline points=" 9225,1350 10575,1350"
	stroke="#000000" stroke-width="585px"/>
<!-- Line -->
<polyline points=" 9225,3150 10575,3150"
	stroke="#000000" stroke-width="585px"/>
<!-- Line -->
<polyline points=" 9225,10350 10575,10350"
	stroke="#000000" stroke-width="585px"/>
<!-- Line -->
<rect x="0" y="0" width="11700" height="11700"
	stroke="#000000" stroke-width="135px"/>
<!-- Line -->
<polyline points=" 7877,3495 4727,7320"
	stroke="#000000" stroke-width="435px"/>
<!-- Line -->
<polyline points=" 776,3491 3926,7316"
	stroke="#000000" stroke-width="435px"/>
<!-- Line -->
<polyline points=" 3915,7335 3915,9810"
	stroke="#000000" stroke-width="435px"/>
<!-- Line -->
<polyline points=" 4770,7335 4770,9765"
	stroke="#000000" stroke-width="435px"/>
</g>
</svg>
