<?xml version="1.0" standalone="no"?>
<!-- Creator: fig2dev Version 3.2.7a -->
<!-- CreationDate: 2020-05-21 13:31:03 -->
<!-- Magnification: 1.05 -->
<svg	xmlns="http://www.w3.org/2000/svg"
	xmlns:xlink="http://www.w3.org/1999/xlink"
	width="651pt" height="638pt"
	viewBox="1184 343 10321 10114">
<g fill="none">
<!-- Line -->
<rect x="3150" y="450" width="6300" height="9900"
	stroke="#000000" stroke-width="135px"/>
<!-- Line -->
<polyline points=" 3600,900 7200,900"
	stroke="#0000ff" stroke-width="285px"/>
<!-- Line -->
<polyline points=" 3600,1800 7200,1800"
	stroke="#00ffff" stroke-width="285px"/>
<!-- Line -->
<polyline points=" 3600,2700 7200,2700"
	stroke="#ff0000" stroke-width="285px"/>
<!-- Line -->
<polyline points=" 3600,3600 7200,3600"
	stroke="#ff00ff" stroke-width="285px"/>
<!-- Line -->
<polyline points=" 3600,5400 7200,5400"
	stroke="#803000" stroke-width="285px"/>
<!-- Line -->
<polyline points=" 3600,6300 7200,6300"
	stroke="#00d1d1" stroke-width="285px"/>
<!-- Line -->
<polyline points=" 3600,7200 7200,7200"
	stroke="#ffff00" stroke-width="285px"/>
<!-- Line -->
<polyline points=" 3600,8100 7200,8100"
	stroke="#ffbfbf" stroke-width="285px"/>
<!-- Line -->
<polyline points=" 3600,9000 7200,9000"
	stroke="#00008f" stroke-width="285px"/>
<!-- Line -->
<polyline points=" 3600,9900 7200,9900"
	stroke="#8f008f" stroke-width="285px"/>
<!-- Line -->
<polyline points=" 7650,900 9000,900"
	stroke="#000000" stroke-width="285px"/>
<!-- Line -->
<polyline points=" 7650,1800 9000,1800"
	stroke="#000000" stroke-width="285px"/>
<!-- Line -->
<polyline points=" 7650,2700 9000,2700"
	stroke="#000000" stroke-width="285px"/>
<!-- Line -->
<polyline points=" 7650,3600 9000,3600"
	stroke="#000000" stroke-width="285px"/>
<!-- Line -->
<polyline points=" 7650,4500 9000,4500"
	stroke="#000000" stroke-width="285px"/>
<!-- Line -->
<polyline points=" 7650,5400 9000,5400"
	stroke="#000000" stroke-width="285px"/>
<!-- Line -->
<polyline points=" 7650,6300 9000,6300"
	stroke="#000000" stroke-width="285px"/>
<!-- Line -->
<polyline points=" 7650,7200 9000,7200"
	stroke="#000000" stroke-width="285px"/>
<!-- Line -->
<polyline points=" 7650,8100 9000,8100"
	stroke="#000000" stroke-width="285px"/>
<!-- Line -->
<polyline points=" 7650,9000 9000,9000"
	stroke="#000000" stroke-width="285px"/>
<!-- Line -->
<polyline points=" 7650,9900 9000,9900"
	stroke="#000000" stroke-width="285px"/>
<!-- Line -->
<polyline points=" 3600,4500 7200,4500"
	stroke="#008f00" stroke-width="285px"/>
<!-- Line -->
<polyline points=" 1822,9475 10822,1375"
	stroke="#ff0000" stroke-width="885px"/>
<!-- Line -->
<polyline points=" 1867,1275 10867,9375"
	stroke="#ff0000" stroke-width="885px"/>
</g>
</svg>
