<?xml version="1.0" standalone="no"?>
<!-- Creator: fig2dev Version 3.2.7a -->
<!-- CreationDate: 2020-05-21 13:46:12 -->
<!-- Magnification: 1.05 -->
<svg	xmlns="http://www.w3.org/2000/svg"
	xmlns:xlink="http://www.w3.org/1999/xlink"
	width="733pt" height="671pt"
	viewBox="-188 -188 11626 10645">
<g fill="none">
<!-- Line -->
<polyline points=" 7650,900 9000,900"
	stroke="#000000" stroke-width="285px"/>
<!-- Line -->
<polyline points=" 7650,1800 9000,1800"
	stroke="#000000" stroke-width="285px"/>
<!-- Line -->
<polyline points=" 7650,2700 9000,2700"
	stroke="#000000" stroke-width="285px"/>
<!-- Line -->
<polyline points=" 7650,3600 9000,3600"
	stroke="#000000" stroke-width="285px"/>
<!-- Line -->
<polyline points=" 7650,4500 9000,4500"
	stroke="#000000" stroke-width="285px"/>
<!-- Line -->
<polyline points=" 7650,5400 9000,5400"
	stroke="#000000" stroke-width="285px"/>
<!-- Line -->
<polyline points=" 7650,6300 9000,6300"
	stroke="#000000" stroke-width="285px"/>
<!-- Line -->
<polyline points=" 7650,7200 9000,7200"
	stroke="#000000" stroke-width="285px"/>
<!-- Line -->
<polyline points=" 7650,8100 9000,8100"
	stroke="#000000" stroke-width="285px"/>
<!-- Line -->
<polyline points=" 7650,9000 9000,9000"
	stroke="#000000" stroke-width="285px"/>
<!-- Line -->
<polyline points=" 7650,9900 9000,9900"
	stroke="#000000" stroke-width="285px"/>
<!-- Line -->
<rect x="1800" y="450" width="7650" height="9900"
	stroke="#000000" stroke-width="135px"/>
<!-- Line -->
<polyline points=" 4050,900 7200,900"
	stroke="#000000" stroke-width="285px"/>
<!-- Line -->
<polyline points=" 2205,900 3555,900"
	stroke="#000000" stroke-width="285px"/>
<!-- Line -->
<polyline points=" 4005,1800 7155,1800"
	stroke="#000000" stroke-width="285px"/>
<!-- Line -->
<polyline points=" 2250,1800 3600,1800"
	stroke="#000000" stroke-width="285px"/>
<!-- Line -->
<polyline points=" 4005,2700 7155,2700"
	stroke="#000000" stroke-width="285px"/>
<!-- Line -->
<polyline points=" 2250,2700 3600,2700"
	stroke="#000000" stroke-width="285px"/>
<!-- Line -->
<polyline points=" 4005,3600 7155,3600"
	stroke="#000000" stroke-width="285px"/>
<!-- Line -->
<polyline points=" 4005,4500 7155,4500"
	stroke="#000000" stroke-width="285px"/>
<!-- Line -->
<polyline points=" 4005,5400 7155,5400"
	stroke="#000000" stroke-width="285px"/>
<!-- Line -->
<polyline points=" 4005,6300 7155,6300"
	stroke="#000000" stroke-width="285px"/>
<!-- Line -->
<polyline points=" 4005,7200 7155,7200"
	stroke="#000000" stroke-width="285px"/>
<!-- Line -->
<polyline points=" 4005,8100 7155,8100"
	stroke="#000000" stroke-width="285px"/>
<!-- Line -->
<polyline points=" 4005,9000 7155,9000"
	stroke="#000000" stroke-width="285px"/>
<!-- Line -->
<polyline points=" 4005,9900 7155,9900"
	stroke="#000000" stroke-width="285px"/>
<!-- Line -->
<polyline points=" 2250,3600 3600,3600"
	stroke="#000000" stroke-width="285px"/>
<!-- Line -->
<polyline points=" 2250,4500 3600,4500"
	stroke="#000000" stroke-width="285px"/>
<!-- Line -->
<polyline points=" 2250,5400 3600,5400"
	stroke="#000000" stroke-width="285px"/>
<!-- Line -->
<polyline points=" 2250,6300 3600,6300"
	stroke="#000000" stroke-width="285px"/>
<!-- Line -->
<polyline points=" 2250,7200 3600,7200"
	stroke="#000000" stroke-width="285px"/>
<!-- Line -->
<polyline points=" 2250,8100 3600,8100"
	stroke="#000000" stroke-width="285px"/>
<!-- Line -->
<polyline points=" 2250,9000 3600,9000"
	stroke="#000000" stroke-width="285px"/>
<!-- Line -->
<polyline points=" 2250,9900 3600,9900"
	stroke="#000000" stroke-width="285px"/>
<!-- Line -->
<polyline points=" 450,4050 450,5850"
	stroke="#0000ff" stroke-width="885px"/>
<!-- Line -->
<polyline points=" 10800,450 10800,2250"
	stroke="#ff0000" stroke-width="885px"/>
<!-- Line -->
<polyline points=" 10800,4050 10800,5850"
	stroke="#ff0000" stroke-width="885px"/>
<!-- Line -->
<polyline points=" 10800,7650 10800,9450"
	stroke="#ff0000" stroke-width="885px"/>
<!-- Line -->
<polyline points=" 450,450 450,2250"
	stroke="#0000ff" stroke-width="885px"/>
<!-- Line -->
<polyline points=" 450,7650 450,9450"
	stroke="#0000ff" stroke-width="885px"/>
</g>
</svg>
