<?xml version="1.0" standalone="no"?>
<!-- Creator: fig2dev Version 3.2.7a -->
<!-- CreationDate: 2020-05-21 13:46:30 -->
<!-- Magnification: 1.05 -->
<svg	xmlns="http://www.w3.org/2000/svg"
	xmlns:xlink="http://www.w3.org/1999/xlink"
	width="868pt" height="568pt"
	viewBox="-319 -319 13778 9008">
<g fill="none">
<!-- Line -->
<polyline points=" 13050,4050 9855,4050 9855,2700 2700,2700 2700,4050 0,4050"
	stroke="#ff00ff" stroke-width="360px"/>
<!-- Line -->
<polygon points=" 883,5895 1783,5895 1333,5220"
	stroke="#ff0000" stroke-width="285px"/>
<!-- Line -->
<polyline points=" 1168,5556 1528,5781"
	stroke="#ff0000" stroke-width="360px"/>
<!-- Line -->
<polygon points=" 5850,7470 6750,7470 6300,8145"
	stroke="#ff0000" stroke-width="285px"/>
<!-- Line -->
<polyline points=" 6120,7830 6480,7605"
	stroke="#ff0000" stroke-width="360px"/>
<!-- Line -->
<polyline points=" 6300,7470 6300,4950"
	stroke="#ff0000" stroke-width="435px"/>
<!-- Line -->
<polygon points=" 9196,5827 10096,5827 9646,5152"
	stroke="#a14000" stroke-width="285px"/>
<!-- Line -->
<polyline points=" 9450,5490 9810,5715"
	stroke="#a14000" stroke-width="360px"/>
<!-- Line -->
<polygon points=" 11700,7470 12600,7470 12150,8145"
	stroke="#a14000" stroke-width="285px"/>
<!-- Line -->
<polyline points=" 12015,7785 12375,7560"
	stroke="#a14000" stroke-width="360px"/>
<!-- Line -->
<polyline points=" 0,4860 13050,4860"
	stroke="#00d1d1" stroke-width="285px"/>
<!-- Line -->
<polyline points=" 0,8460 13050,8460"
	stroke="#00d1d1" stroke-width="285px"/>
<!-- Line -->
<polyline points=" 1350,8370 1350,5850"
	stroke="#ff0000" stroke-width="435px"/>
<!-- Line -->
<polyline points=" 9675,8370 9675,5850"
	stroke="#a14000" stroke-width="435px"/>
<!-- Line -->
<polyline points=" 12150,7425 12150,4905"
	stroke="#a14000" stroke-width="435px"/>
<!-- Line -->
<!--  0  -->
<polyline points=" 0,1125 0,225 225,225 225,1125 450,1125 450,225 675,225 675,1125 900,1125 900,225
 1125,225 1125,1125 1350,1125 1350,225 1575,225 1575,1125 2025,1125 2025,225 2025,1125
 2250,1125 2250,225 2250,1125 2925,1125 10125,1125 10125,0 10350,0 10350,1125
 10575,1125 10575,0 10800,0 10800,1125 11025,1125 11025,0 11250,0 11250,1125 11475,1125
 11475,0 11700,0 11700,1125 11925,1125 11925,0 12150,0 12150,1125 12375,1125 12375,0
 12600,0 12600,1125 12825,1125 12825,0 13050,0 13050,1125"
	stroke="#00ff00" stroke-width="435px"/>
<!-- Line -->
<polyline points=" 90,540 1665,540 1665,765 2790,765 2790,90 9990,90 9990,765 13140,765"
	stroke="#0000ff" stroke-width="435px"/>
<!-- Circle -->
<circle cx="180" cy="180" r="190" fill="#ff0000"
	stroke="#ff0000" stroke-width="8px"/>
<!-- Circle -->
<circle cx="540" cy="180" r="190" fill="#ff0000"
	stroke="#ff0000" stroke-width="8px"/>
<!-- Circle -->
<circle cx="945" cy="180" r="190" fill="#ff0000"
	stroke="#ff0000" stroke-width="8px"/>
<!-- Circle -->
<circle cx="1350" cy="180" r="190" fill="#ff0000"
	stroke="#ff0000" stroke-width="8px"/>
<!-- Circle -->
<circle cx="180" cy="1170" r="190" fill="#ff0000"
	stroke="#ff0000" stroke-width="8px"/>
<!-- Circle -->
<circle cx="540" cy="1170" r="190" fill="#ff0000"
	stroke="#ff0000" stroke-width="8px"/>
<!-- Circle -->
<circle cx="900" cy="1170" r="190" fill="#ff0000"
	stroke="#ff0000" stroke-width="8px"/>
<!-- Circle -->
<circle cx="1265" cy="1180" r="190" fill="#ff0000"
	stroke="#ff0000" stroke-width="8px"/>
<!-- Circle -->
<circle cx="1620" cy="1170" r="190" fill="#ff0000"
	stroke="#ff0000" stroke-width="8px"/>
<!-- Circle -->
<circle cx="1980" cy="1170" r="190" fill="#ff0000"
	stroke="#ff0000" stroke-width="8px"/>
<!-- Circle -->
<circle cx="2340" cy="1170" r="190" fill="#ff0000"
	stroke="#ff0000" stroke-width="8px"/>
<!-- Circle -->
<circle cx="1710" cy="180" r="190" fill="#ff0000"
	stroke="#ff0000" stroke-width="8px"/>
<!-- Circle -->
<circle cx="2070" cy="180" r="190" fill="#ff0000"
	stroke="#ff0000" stroke-width="8px"/>
<!-- Circle -->
<circle cx="10260" cy="1170" r="190" fill="#ff0000"
	stroke="#ff0000" stroke-width="8px"/>
<!-- Circle -->
<circle cx="10440" cy="0" r="190" fill="#ff0000"
	stroke="#ff0000" stroke-width="8px"/>
<!-- Circle -->
<circle cx="10620" cy="1170" r="190" fill="#ff0000"
	stroke="#ff0000" stroke-width="8px"/>
<!-- Circle -->
<circle cx="10970" cy="1170" r="190" fill="#ff0000"
	stroke="#ff0000" stroke-width="8px"/>
<!-- Circle -->
<circle cx="11340" cy="1170" r="190" fill="#ff0000"
	stroke="#ff0000" stroke-width="8px"/>
<!-- Circle -->
<circle cx="11700" cy="1170" r="190" fill="#ff0000"
	stroke="#ff0000" stroke-width="8px"/>
<!-- Circle -->
<circle cx="12060" cy="1170" r="190" fill="#ff0000"
	stroke="#ff0000" stroke-width="8px"/>
<!-- Circle -->
<circle cx="12420" cy="1170" r="190" fill="#ff0000"
	stroke="#ff0000" stroke-width="8px"/>
<!-- Circle -->
<circle cx="12780" cy="1170" r="190" fill="#ff0000"
	stroke="#ff0000" stroke-width="8px"/>
<!-- Circle -->
<circle cx="10800" cy="0" r="190" fill="#ff0000"
	stroke="#ff0000" stroke-width="8px"/>
<!-- Circle -->
<circle cx="11160" cy="0" r="190" fill="#ff0000"
	stroke="#ff0000" stroke-width="8px"/>
<!-- Circle -->
<circle cx="11520" cy="0" r="190" fill="#ff0000"
	stroke="#ff0000" stroke-width="8px"/>
<!-- Circle -->
<circle cx="11880" cy="0" r="190" fill="#ff0000"
	stroke="#ff0000" stroke-width="8px"/>
<!-- Circle -->
<circle cx="12240" cy="0" r="190" fill="#ff0000"
	stroke="#ff0000" stroke-width="8px"/>
<!-- Circle -->
<circle cx="12600" cy="0" r="190" fill="#ff0000"
	stroke="#ff0000" stroke-width="8px"/>
<!-- Circle -->
<circle cx="12960" cy="0" r="190" fill="#ff0000"
	stroke="#ff0000" stroke-width="8px"/>
<!-- Circle -->
<circle cx="2700" cy="1170" r="190" fill="#ff0000"
	stroke="#ff0000" stroke-width="8px"/>
</g>
</svg>
