<?xml version="1.0" encoding="UTF-8" standalone="no"?>
<!-- Creator: fig2dev Version 3.2.8b -->
<!-- CreationDate: 2023-07-16 23:28:12 -->
<!-- Magnification: 1.05 -->
<svg	xmlns="http://www.w3.org/2000/svg"
	xmlns:xlink="http://www.w3.org/1999/xlink"
	width="356pt" height="483pt"
	viewBox="2557 802 5641 7666">
<g fill="none">
<!-- Line -->
<polyline points=" 3195,6255 3196,6256 3199,6258 3204,6261 3212,6266 3224,6273 3239,6283 3259,6295
 3282,6310 3309,6327 3339,6346 3373,6368 3410,6392 3449,6417 3490,6443 3532,6470
 3574,6498 3617,6526 3660,6555 3702,6583 3742,6610 3782,6638 3820,6664 3856,6690
 3891,6716 3924,6741 3956,6765 3986,6789 4014,6813 4042,6837 4069,6861 4095,6885
 4119,6908 4144,6933 4168,6958 4192,6985 4216,7012 4240,7041 4264,7072 4288,7103
 4312,7137 4336,7171 4360,7206 4384,7242 4408,7279 4433,7317 4457,7355 4481,7393
 4505,7431 4529,7469 4553,7506 4576,7542 4599,7578 4622,7611 4645,7643 4667,7674
 4689,7702 4710,7728 4731,7751 4752,7772 4771,7789 4791,7804 4809,7815 4827,7823
 4844,7828 4860,7830 4877,7828 4894,7822 4909,7813 4922,7801 4934,7787 4945,7771
 4954,7752 4962,7732 4969,7711 4974,7688 4979,7663 4983,7638 4986,7612 4989,7584
 4992,7556 4995,7526 4999,7495 5003,7463 5008,7429 5014,7393 5022,7355 5030,7316
 5041,7273 5054,7229 5068,7181 5085,7130 5104,7075 5126,7016 5149,6953 5175,6885
 5189,6848 5204,6809 5220,6769 5236,6728 5252,6685 5269,6640 5287,6594 5306,6547
 5325,6498 5344,6448 5364,6397 5385,6344 5406,6290 5427,6235 5449,6178 5472,6120
 5495,6062 5518,6002 5541,5941 5565,5880 5590,5818 5614,5754 5639,5691 5664,5627
 5689,5562 5715,5497 5740,5431 5766,5365 5792,5299 5817,5233 5843,5167 5869,5101
 5895,5036 5921,4970 5946,4905 5972,4840 5997,4775 6023,4711 6048,4648 6073,4585
 6098,4523 6122,4462 6146,4401 6170,4341 6194,4282 6218,4224 6241,4167 6264,4111
 6287,4056 6309,4001 6331,3948 6353,3896 6375,3844 6396,3794 6418,3744 6439,3695
 6459,3647 6480,3600 6505,3544 6529,3488 6554,3433 6579,3378 6604,3324 6630,3269
 6655,3214 6682,3159 6708,3103 6736,3046 6764,2988 6792,2930 6822,2870 6852,2810
 6882,2749 6914,2687 6945,2624 6978,2561 7010,2497 7043,2432 7076,2368 7109,2303
 7142,2239 7175,2176 7208,2113 7239,2052 7271,1992 7301,1935 7330,1879 7357,1826
 7383,1776 7408,1729 7431,1686 7452,1646 7471,1609 7488,1577 7503,1548 7516,1524
 7527,1502 7536,1485 7544,1471 7549,1460 7554,1452 7557,1446 7559,1443 7560,1441
 7560,1440"
	stroke="#00b000" stroke-width="885px" stroke-linejoin="bevel"/>
</g>
</svg>
