<?xml version="1.0" encoding="UTF-8" standalone="no"?>
<!-- Creator: fig2dev Version 3.2.8b -->
<!-- CreationDate: 2023-07-18 23:03:33 -->
<!-- Magnification: 1.05 -->
<svg	xmlns="http://www.w3.org/2000/svg"
	xmlns:xlink="http://www.w3.org/1999/xlink"
	width="743pt" height="651pt"
	viewBox="118 237 11795 10326">
<g fill="none">
<!-- Line -->
<rect x="5400" y="450" width="6300" height="9900"
	stroke="#000000" stroke-width="285px"/>
<!-- Line -->
<rect x="6075" y="1125" width="2250" height="900" fill="#000000"
	stroke="#000000" stroke-width="135px"/>
<!-- Line -->
<rect x="8775" y="1125" width="2250" height="900" fill="#000000"
	stroke="#000000" stroke-width="135px"/>
<!-- Line -->
<rect x="6075" y="2475" width="2250" height="900" fill="#000000"
	stroke="#000000" stroke-width="135px"/>
<!-- Line -->
<rect x="8775" y="2475" width="2250" height="900" fill="#000000"
	stroke="#000000" stroke-width="135px"/>
<!-- Line -->
<rect x="6075" y="3825" width="2250" height="900" fill="#000000"
	stroke="#000000" stroke-width="135px"/>
<!-- Line -->
<rect x="8775" y="3825" width="2250" height="900" fill="#000000"
	stroke="#000000" stroke-width="135px"/>
<!-- Line -->
<rect x="6075" y="5175" width="2250" height="900" fill="#000000"
	stroke="#000000" stroke-width="135px"/>
<!-- Line -->
<rect x="8775" y="5175" width="2250" height="900" fill="#000000"
	stroke="#000000" stroke-width="135px"/>
<!-- Line -->
<rect x="6075" y="6525" width="2250" height="900" fill="#000000"
	stroke="#000000" stroke-width="135px"/>
<!-- Line -->
<rect x="8775" y="6525" width="2250" height="900" fill="#000000"
	stroke="#000000" stroke-width="135px"/>
<!-- Line -->
<rect x="7650" y="7875" width="1800" height="1800" fill="#000000"
	stroke="#000000" stroke-width="8px"/>
<!-- Line -->
<polyline points=" 225,6750 2025,6750 2025,8100 4725,5400 2025,2700 2025,4050 225,4050 225,6750
" fill="#0000ff"
	stroke="#000000" stroke-width="135px"/>
</g>
</svg>
