<?xml version="1.0" standalone="no"?>
<!-- Creator: fig2dev Version 3.2.7a -->
<!-- CreationDate: 2020-05-21 14:10:26 -->
<!-- Magnification: 1.05 -->
<svg	xmlns="http://www.w3.org/2000/svg"
	xmlns:xlink="http://www.w3.org/1999/xlink"
	width="676pt" height="761pt"
	viewBox="1162 -683 10726 12076">
<g fill="none">
<!-- Arc -->
<path d="M 2925,2025 A 4901 4901 0 0 1 10125 2025"
	stroke="#000000" stroke-width="285px"/>
<!-- Arc -->
<path d="M 2970,2025 A 4901 4901 0 0 0 10170 2025"
	stroke="#000000" stroke-width="285px"/>
<!-- Arc -->
<path d="M 6120,8325 A 475 475 0 0 0 6930 8325"
	stroke="#000000" stroke-width="285px"/>
<!-- Arc -->
<path d="M 6120,5850 A 475 475 0 0 0 6930 5850"
	stroke="#000000" stroke-width="285px"/>
<!-- Line -->
<polyline points=" 10800,5400"
	stroke="#000000" stroke-width="8px"/>
<!-- Line -->
<polyline points=" 11250,-45 11250,10755"
	stroke="#ff0000" stroke-width="885px" stroke-dasharray="1220 1220"/>
<!-- Line -->
<polyline points=" 10125,2070 6975,5895"
	stroke="#000000" stroke-width="285px"/>
<!-- Line -->
<polyline points=" 2969,2024 6119,5849"
	stroke="#000000" stroke-width="285px"/>
<!-- Line -->
<polyline points=" 6975,5940 6975,8370"
	stroke="#000000" stroke-width="285px"/>
<!-- Line -->
<polyline points=" 6120,5895 6120,8370"
	stroke="#000000" stroke-width="285px"/>
<!-- Line -->
<polyline points=" 1800,-45 1800,10755"
	stroke="#0000ff" stroke-width="885px" stroke-dasharray="1220 1220"/>
</g>
</svg>
