<?xml version="1.0" standalone="no"?>
<!-- Creator: fig2dev Version 3.2.6a -->
<!-- CreationDate: 2020-07-05 15:26:39 -->
<!-- Magnification: 1.05 -->
<svg	xmlns="http://www.w3.org/2000/svg"
	xmlns:xlink="http://www.w3.org/1999/xlink"
	width="687pt" height="690pt"
	viewBox="-278 487 10906 10951">
<g fill="none">
<!-- Arc -->
<path d="M 1575,2927 A 4901 4901 0 0 0 8775 2927"
	stroke="#000000" stroke-width="435px"/>
<!-- Arc -->
<path d="M 4747,6797 A 519 519 0 0 0 5602 6797"
	stroke="#000000" stroke-width="435px"/>
<!-- Arc -->
<path d="M 4770,9187 A 428 428 0 1 0 5625 9187"
	stroke="#000000" stroke-width="435px"/>
<!-- Arc -->
<path d="M 1575,3197 A 4901 4901 0 0 1 8775 3197"
	stroke="#000000" stroke-width="435px"/>
<!-- Line -->
<polyline points=" 8732,3002 5582,6827"
	stroke="#000000" stroke-width="435px"/>
<!-- Line -->
<polyline points=" 1631,2998 4781,6823"
	stroke="#000000" stroke-width="435px"/>
<!-- Line -->
<polyline points=" 4770,6842 4770,9317"
	stroke="#000000" stroke-width="435px"/>
<!-- Line -->
<polyline points=" 5625,6842 5625,9272"
	stroke="#000000" stroke-width="435px"/>
<!-- Line -->
<polyline points=" 9990,4950 9990,6975"
	stroke="#ff0000" stroke-width="885px"/>
<!-- Line -->
<polyline points=" 9990,8775 9990,10800"
	stroke="#ff0000" stroke-width="885px"/>
<!-- Line -->
<polyline points=" 360,1125 360,3150"
	stroke="#0000ff" stroke-width="885px"/>
<!-- Line -->
<polyline points=" 360,4950 360,6975"
	stroke="#0000ff" stroke-width="885px"/>
<!-- Line -->
<polyline points=" 360,8775 360,10800"
	stroke="#0000ff" stroke-width="885px"/>
<!-- Line -->
<polyline points=" 9990,1125 9990,3150"
	stroke="#ff0000" stroke-width="885px"/>
</g>
</svg>
